HIERARCHY
ROOT joint_Root
{
	OFFSET 0.0 0.0 0.0
	CHANNELS 6 Xposition Yposition Zposition Zrotation Xrotation Yrotation 
	JOINT Hips
	{
		OFFSET 4.5925 91.4895 -427.239
		CHANNELS 6 Xposition Yposition Zposition Zrotation Xrotation Yrotation 
		JOINT Spine
		{
			OFFSET 15.7357 0.0 0.0
			CHANNELS 6 Xposition Yposition Zposition Zrotation Xrotation Yrotation 
			JOINT Chest
			{
				OFFSET 8.98455 -0.406207 0.0
				CHANNELS 6 Xposition Yposition Zposition Zrotation Xrotation Yrotation 
				JOINT Neck
				{
					OFFSET 16.3773 0.0 0.0
					CHANNELS 6 Xposition Yposition Zposition Zrotation Xrotation Yrotation 
					JOINT Head
					{
						OFFSET 6.45672 0.0 0.0
						CHANNELS 6 Xposition Yposition Zposition Zrotation Xrotation Yrotation 
						End Site
						{
							OFFSET 0.0 0.0 0.0
						}
					}
				}
				JOINT Shoulder_L
				{
					OFFSET 12.9942 -0.242716 4.98039
					CHANNELS 6 Xposition Yposition Zposition Zrotation Xrotation Yrotation 
					JOINT UpperArm_L
					{
						OFFSET 5.34809 0.0 0.0
						CHANNELS 6 Xposition Yposition Zposition Zrotation Xrotation Yrotation 
						JOINT LowerArm_L
						{
							OFFSET 24.3286 1.87007e-05 0.0
							CHANNELS 6 Xposition Yposition Zposition Zrotation Xrotation Yrotation 
							JOINT Hand_L
							{
								OFFSET 22.2916 0.0 0.0
								CHANNELS 6 Xposition Yposition Zposition Zrotation Xrotation Yrotation 
								End Site
								{
									OFFSET 0.0 0.0 0.0
								}
							}
						}
					}
				}
				JOINT Shoulder_R
				{
					OFFSET 12.9945 -0.242716 -4.98039
					CHANNELS 6 Xposition Yposition Zposition Zrotation Xrotation Yrotation 
					JOINT UpperArm_R
					{
						OFFSET -5.34813 0.0 0.0
						CHANNELS 6 Xposition Yposition Zposition Zrotation Xrotation Yrotation 
						JOINT LowerArm_R
						{
							OFFSET -24.3289 0.000322201 0.0
							CHANNELS 6 Xposition Yposition Zposition Zrotation Xrotation Yrotation 
							JOINT Hand_R
							{
								OFFSET -22.2915 -0.000108084 0.0
								CHANNELS 6 Xposition Yposition Zposition Zrotation Xrotation Yrotation 
								End Site
								{
									OFFSET 0.0 0.0 0.0
								}
							}
						}
					}
				}
			}
		}
		JOINT UpperLeg_L
		{
			OFFSET -2.19248 -6.46944 0.0
			CHANNELS 6 Xposition Yposition Zposition Zrotation Xrotation Yrotation 
			JOINT LowerLeg_L
			{
				OFFSET 39.0811 0.0 -1.23785e-05
				CHANNELS 6 Xposition Yposition Zposition Zrotation Xrotation Yrotation 
				JOINT Foot_L
				{
					OFFSET 40.9854 0.0 -1.26872e-05
					CHANNELS 6 Xposition Yposition Zposition Zrotation Xrotation Yrotation 
					JOINT Toes_L
					{
						OFFSET 11.7543 0.0 0.0
						CHANNELS 6 Xposition Yposition Zposition Zrotation Xrotation Yrotation 
						End Site
						{
							OFFSET 0.0 0.0 0.0
						}
					}
				}
			}
		}
		JOINT UpperLeg_R
		{
			OFFSET -2.19251 6.46944 0.0
			CHANNELS 6 Xposition Yposition Zposition Zrotation Xrotation Yrotation 
			JOINT LowerLeg_R
			{
				OFFSET -39.0811 -0.00228153 -0.0401928
				CHANNELS 6 Xposition Yposition Zposition Zrotation Xrotation Yrotation 
				JOINT Foot_R
				{
					OFFSET -40.9854 0.0 0.0
					CHANNELS 6 Xposition Yposition Zposition Zrotation Xrotation Yrotation 
					JOINT Toes_R
					{
						OFFSET -11.7543 0.0 0.0
						CHANNELS 6 Xposition Yposition Zposition Zrotation Xrotation Yrotation 
						End Site
						{
							OFFSET 0.0 0.0 0.0
						}
					}
				}
			}
		}
	}
}
MOTION
Frames:	8
Frame Time:	0.0333333
0.000000 0.000000 0.000000 0.000000 0.000000 -0.000000 1.627850 85.018500 30.560400 -89.384600 2.424730 -175.339000 15.735700 0.000005 -0.000001 91.849900 82.357800 -91.232700 8.984550 -0.406207 -0.000000 7.508300 0.490104 1.200870 16.377300 -0.000001 -0.000001 -0.062588 -2.319560 0.925827 6.456720 -0.000001 -0.000000 -0.011400 -1.301010 -1.176320 12.994200 -0.242716 4.980390 -91.019500 3.593380 -74.148400 5.348090 -0.000007 -0.000001 -64.831300 32.536700 1.610410 24.328600 0.000019 0.000005 7.205090 3.443010 -64.594400 22.291600 -0.000001 0.000005 18.202700 5.481200 -5.796990 12.994500 -0.242716 -4.980390 88.825100 8.860360 -82.415800 -5.348130 -0.000001 -0.000004 -52.928000 16.118800 -37.153000 -24.328900 0.000322 -0.000009 -18.974400 2.515700 -97.275100 -22.291500 -0.000108 -0.000004 29.019500 5.641930 -14.292600 -2.192480 -6.469440 -0.000000 -177.260000 -6.890260 -30.490200 39.081100 -0.000007 -0.000012 0.055449 -0.010393 79.376600 40.985400 -0.000006 -0.000013 4.683800 -2.505900 -60.610300 11.754300 -0.000000 0.000003 -0.004203 -0.053541 -18.754800 -2.192510 6.469440 -0.000001 -178.666000 13.497600 163.098000 -39.081100 -0.002282 -0.040193 0.087854 -0.062088 53.731700 -40.985400 0.000008 0.000006 8.686490 -2.060540 -82.594100 -11.754300 -0.000006 -0.000006 -0.020102 -0.031469 -16.900000
0.000000 0.000000 0.000000 0.000000 0.000000 -0.000000 1.370730 85.947700 25.428300 -89.836500 4.041320 -176.393000 15.735700 0.000005 -0.000001 97.722700 82.558100 -97.500700 8.984550 -0.406207 -0.000000 6.982230 1.991730 0.321956 16.377300 -0.000001 -0.000001 -0.084178 -2.450720 1.308400 6.456720 -0.000001 -0.000000 -0.270544 -2.600190 -0.679086 12.994200 -0.242716 4.980390 -90.702800 2.333250 -73.231900 5.348090 -0.000007 -0.000001 -68.047100 32.302600 10.864900 24.328600 0.000019 0.000005 3.630680 1.565080 -66.716900 22.291600 -0.000001 0.000005 16.610800 5.487330 -6.030900 12.994500 -0.242716 -4.980390 89.122000 7.352130 -83.171000 -5.348130 -0.000001 -0.000004 -55.182700 12.302100 -43.933800 -24.328900 0.000322 -0.000009 -16.790800 2.978670 -99.771500 -22.291500 -0.000108 -0.000004 28.851200 5.647390 -14.770000 -2.192480 -6.469440 -0.000000 -178.506000 -9.204870 -33.330100 39.081100 -0.000007 -0.000012 0.061804 -0.023304 69.335800 40.985400 -0.000006 -0.000013 3.716840 -2.069440 -62.764800 11.754300 -0.000000 0.000003 -0.004450 -0.056046 -18.856800 -2.192510 6.469440 -0.000001 179.617000 12.847700 167.896000 -39.081100 -0.002282 -0.040193 0.060834 -0.049092 49.551900 -40.985400 0.000008 0.000006 7.824450 -0.429271 -83.043100 -11.754300 -0.000006 -0.000006 -0.692147 -0.847182 -17.551800
0.000000 0.000000 0.000000 0.000000 0.000000 -0.000000 1.066870 87.173900 20.094600 -90.320200 4.683080 -177.763000 15.735700 0.000005 -0.000001 102.982000 82.903200 -103.197000 8.984550 -0.406207 -0.000000 6.078100 3.183120 -0.596914 16.377300 -0.000001 -0.000001 -0.255964 -3.144350 1.642330 6.456720 -0.000001 -0.000000 -0.264035 -3.796350 -0.507584 12.994200 -0.242716 4.980390 -90.147600 0.488304 -73.187100 5.348090 -0.000007 -0.000001 -71.642200 30.265300 18.851400 24.328600 0.000019 0.000005 2.700900 1.047650 -68.810300 22.291600 -0.000001 0.000005 15.011000 5.491140 -6.182120 12.994500 -0.242716 -4.980390 89.361700 5.316400 -83.143400 -5.348130 -0.000001 -0.000004 -57.997200 10.535300 -46.839200 -24.328900 0.000322 -0.000009 -16.454800 3.605020 -102.017000 -22.291500 -0.000108 -0.000004 30.037900 5.648860 -14.907500 -2.192480 -6.469440 -0.000000 -179.939000 -10.084100 -34.045500 39.081100 -0.000007 -0.000012 0.040782 -0.029005 54.574900 40.985400 -0.000006 -0.000013 2.381480 -3.034640 -62.613400 11.754300 -0.000000 0.000003 -0.004438 -0.055924 -18.851900 -2.192510 6.469440 -0.000001 177.945000 12.231700 172.455000 -39.081100 -0.002282 -0.040193 0.032594 -0.029810 44.533300 -40.985400 0.000008 0.000006 7.050860 0.852720 -79.861600 -11.754300 -0.000006 -0.000006 -2.006290 -2.294700 -20.886100
0.000000 0.000000 0.000000 0.000000 0.000000 -0.000000 0.800334 88.356300 14.326700 -90.201100 5.315870 -178.917000 15.735700 0.000005 -0.000001 107.731000 83.176900 -108.265000 8.984550 -0.406207 -0.000000 5.262510 4.158630 -1.257520 16.377300 -0.000001 -0.000001 -0.546736 -3.526640 1.947260 6.456720 -0.000001 -0.000000 -0.405833 -4.643680 -0.115628 12.994200 -0.242716 4.980390 -89.586100 -1.389390 -73.409000 5.348090 -0.000007 -0.000001 -74.193200 26.536700 24.527300 24.328600 0.000019 0.000005 5.051420 1.774870 -70.688000 22.291600 -0.000001 0.000005 14.296900 5.496400 -6.388970 12.994500 -0.242716 -4.980390 89.495100 4.156270 -83.068000 -5.348130 -0.000001 -0.000004 -59.513700 10.365500 -46.388000 -24.328900 0.000322 -0.000009 -19.703900 4.961620 -103.576000 -22.291500 -0.000108 -0.000004 30.457400 5.649780 -14.993500 -2.192480 -6.469440 -0.000000 179.580000 -10.992400 -32.020900 39.081100 -0.000007 -0.000012 0.018774 -0.024302 37.684600 40.985400 -0.000006 -0.000013 1.097850 -2.482950 -62.541900 11.754300 -0.000000 0.000003 -0.004459 -0.056139 -18.860600 -2.192510 6.469440 -0.000001 176.900000 11.388500 175.727000 -39.081100 -0.002282 -0.040193 0.043514 -0.044332 42.230800 -40.985400 0.000008 0.000006 6.639920 1.936440 -74.565600 -11.754300 -0.000006 -0.000006 -0.030784 -0.221034 -25.630200
0.000000 0.000000 0.000000 0.000000 0.000000 -0.000000 0.502934 89.184700 7.952090 -88.850200 6.610810 -179.044000 15.735700 0.000005 -0.000001 112.537000 83.156800 -112.863000 8.984550 -0.406207 -0.000000 4.906580 5.243600 -0.875930 16.377300 -0.000001 -0.000001 -0.676493 -3.585830 1.766780 6.456720 -0.000001 -0.000000 -0.346226 -5.033910 0.156025 12.994200 -0.242716 4.980390 -89.170100 -2.785300 -73.401300 5.348090 -0.000007 -0.000001 -75.713800 22.961100 27.172200 24.328600 0.000019 0.000005 6.021000 1.988850 -71.786900 22.291600 -0.000001 0.000005 14.042300 5.482080 -5.828410 12.994500 -0.242716 -4.980390 89.531400 3.880300 -83.108400 -5.348130 -0.000001 -0.000004 -59.960800 11.723700 -42.882000 -24.328900 0.000322 -0.000009 -22.827000 5.976030 -103.893000 -22.291500 -0.000108 -0.000004 29.483500 5.647010 -14.734800 -2.192480 -6.469440 -0.000000 -179.235000 -12.340400 -29.481700 39.081100 -0.000007 -0.000012 0.054982 -0.106959 27.205300 40.985400 -0.000006 -0.000013 1.026650 -0.296020 -64.092200 11.754300 -0.000000 0.000003 -0.005001 -0.061481 -19.078300 -2.192510 6.469440 -0.000001 177.139000 9.555850 177.994000 -39.081100 -0.002282 -0.040193 0.081616 -0.083317 43.239100 -40.985400 0.000008 0.000006 6.974380 2.288710 -66.489300 -11.754300 -0.000006 -0.000006 -0.096470 -0.435713 -34.741200
0.000000 0.000000 0.000000 0.000000 0.000000 -0.000000 -0.026315 89.537900 1.536510 -87.765700 7.653860 -178.779000 15.735700 0.000005 -0.000001 113.872000 83.176600 -113.992000 8.984550 -0.406207 -0.000000 4.736900 5.515680 -0.468884 16.377300 -0.000001 -0.000001 -0.744057 -3.158880 1.644850 6.456720 -0.000001 -0.000000 -0.454721 -4.865700 0.111459 12.994200 -0.242716 4.980390 -89.097800 -2.992270 -73.211900 5.348090 -0.000007 -0.000001 -75.667800 20.180500 26.658600 24.328600 0.000019 0.000005 6.334300 1.943510 -73.010400 22.291600 -0.000001 0.000005 14.343900 5.467850 -5.291630 12.994500 -0.242716 -4.980390 89.452300 4.759340 -83.427400 -5.348130 -0.000001 -0.000004 -59.023900 14.460400 -37.360300 -24.328900 0.000322 -0.000009 -23.776300 5.693070 -102.689000 -22.291500 -0.000108 -0.000004 28.989200 5.647320 -14.765000 -2.192480 -6.469440 -0.000000 -178.042000 -12.441700 -28.342500 39.081100 -0.000007 -0.000012 0.076231 -0.153646 26.388200 40.985400 -0.000006 -0.000013 1.014370 -0.406301 -63.553600 11.754300 -0.000000 0.000003 -0.005323 -0.064567 -19.204100 -2.192510 6.469440 -0.000001 177.106000 8.714220 177.401000 -39.081100 -0.002282 -0.040193 0.146469 -0.125444 48.784800 -40.985400 0.000008 0.000006 8.249140 2.393860 -56.834800 -11.754300 -0.000006 -0.000006 -0.134006 -0.522127 -38.561600
0.000000 0.000000 0.000000 0.000000 0.000000 -0.000000 -0.675419 89.084100 -4.849900 -87.841500 8.070010 -177.843000 15.735700 0.000005 -0.000001 109.966000 83.102800 -110.252000 8.984550 -0.406207 -0.000000 5.224980 4.706420 -0.786797 16.377300 -0.000001 -0.000001 -1.026040 -2.538830 1.358680 6.456720 -0.000001 -0.000000 -1.007340 -4.164870 0.495172 12.994200 -0.242716 4.980390 -89.374200 -2.096780 -73.377900 5.348090 -0.000007 -0.000001 -74.027100 17.733500 23.483600 24.328600 0.000019 0.000005 6.614020 1.718010 -75.504800 22.291600 -0.000001 0.000005 15.627000 5.457470 -4.910570 12.994500 -0.242716 -4.980390 89.351900 6.100120 -83.923200 -5.348130 -0.000001 -0.000004 -57.676100 18.227500 -31.120900 -24.328900 0.000322 -0.000009 -23.673800 4.345360 -99.804100 -22.291500 -0.000108 -0.000004 28.353000 5.652320 -15.241600 -2.192480 -6.469440 -0.000000 -177.651000 -10.550900 -27.846100 39.081100 -0.000007 -0.000012 0.046100 -0.071968 32.641500 40.985400 -0.000006 -0.000013 0.952874 -0.919737 -56.816000 11.754300 -0.000000 0.000003 -0.005754 -0.068589 -19.368100 -2.192510 6.469440 -0.000001 176.131000 8.118260 173.702000 -39.081100 -0.002282 -0.040193 0.225319 -0.133549 58.983000 -40.985400 0.000008 0.000006 7.070300 -0.147835 -46.258900 -11.754300 -0.000006 -0.000006 -0.048094 -0.290896 -28.548400
0.000000 0.000000 0.000000 0.000000 0.000000 -0.000000 -1.258190 87.762200 -10.819500 -88.679200 7.637420 -177.153000 15.735700 0.000005 -0.000001 102.372000 83.202500 -103.089000 8.984550 -0.406207 -0.000000 5.537500 2.919890 -1.574120 16.377300 -0.000001 -0.000001 -1.502010 -1.999830 1.192570 6.456720 -0.000001 -0.000000 -1.211170 -3.225560 0.765275 12.994200 -0.242716 4.980390 -89.846400 -0.526112 -73.727300 5.348090 -0.000007 -0.000001 -70.984100 15.970800 17.757400 24.328600 0.000019 0.000005 5.240130 1.055180 -78.649000 22.291600 -0.000001 0.000005 17.337300 5.449140 -4.608350 12.994500 -0.242716 -4.980390 89.183700 7.734010 -83.956100 -5.348130 -0.000001 -0.000004 -56.180500 23.084900 -25.128000 -24.328900 0.000322 -0.000009 -23.026800 1.940220 -94.552100 -22.291500 -0.000108 -0.000004 27.343900 5.657610 -15.795100 -2.192480 -6.469440 -0.000000 -178.184000 -7.168510 -28.322900 39.081100 -0.000007 -0.000012 -0.110911 0.124493 41.698600 40.985400 -0.000006 -0.000013 0.144342 -3.347140 -60.689100 11.754300 -0.000000 0.000003 -0.001688 -0.024740 -17.582800 -2.192510 6.469440 -0.000001 175.309000 8.698230 167.964000 -39.081100 -0.002282 -0.040193 0.283710 -0.098825 70.598600 -40.985400 0.000008 0.000006 8.023600 -5.730710 -42.558500 -11.754300 -0.000006 -0.000006 -0.016443 -0.146723 -22.561700
